<svg id="Layer_1" data-name="Layer 1" xmlns="http://www.w3.org/2000/svg"  width="250.434" height="200.817"  viewBox="0 0 1291.84 881.57"><title>HH-logo2</title><path d="M326,105.52l-.25.75a2.59,2.59,0,0,1-2.23,1.76,135.83,135.83,0,0,0-18.81,3.2c-7.48,2.21-10.25,7.75-11.91,13.84L252.59,268.26a34.17,34.17,0,0,0-1.1,5.81c0,3.88,2.21,5.26,5.81,7.48,2.3,1.37,10.28,3.13,15.79,3.85a2.61,2.61,0,0,1,2.14,3.33l-.2.65a2.6,2.6,0,0,1-2.5,1.86H186a2.6,2.6,0,0,1-2.5-3.35l.14-.45a2.59,2.59,0,0,1,2.31-1.85c5.71-.4,16.06-1.42,19.54-2.65,7.19-2.5,10.24-7.48,11.9-13.58l19.56-69a2.61,2.61,0,0,0-2.51-3.32H158.74a2.59,2.59,0,0,0-2.5,1.89l-19.68,69.29a15.42,15.42,0,0,0-.84,5.53c0,3.88,1.66,5.82,5.82,7.76,2.32,1.16,10.5,3.1,16.18,3.86a2.61,2.61,0,0,1,2.2,3.22l-.16.64a2.6,2.6,0,0,1-2.53,2H70.94A2.61,2.61,0,0,1,68.41,288l.11-.46a2.62,2.62,0,0,1,2.33-2c5.4-.4,15-1.41,18.62-2.63,7.21-2.5,10.25-7.76,11.92-13.58l39.87-142.9a33.75,33.75,0,0,0,1.11-6.37c0-3.6-1.66-5.54-5.54-7.48a92.29,92.29,0,0,0-15.55-4.34,2.59,2.59,0,0,1-2.06-3.17l.24-1a2.61,2.61,0,0,1,2.54-2h86.42a2.6,2.6,0,0,1,2.51,3.32l-.21.74a2.59,2.59,0,0,1-2.28,1.88,147.34,147.34,0,0,0-19.54,3.2c-7.21,2.21-10.53,8-12.19,13.84l-16.53,59.84a2.61,2.61,0,0,0,2.51,3.31h75.46a2.61,2.61,0,0,0,2.52-1.91l16.63-59.85a36,36,0,0,0,1.11-6.65c0-3.54-1.88-5.2-5.37-7.1a2.11,2.11,0,0,0-.34-.16,96.74,96.74,0,0,0-16.13-4.28,2.61,2.61,0,0,1-2.07-3.4l.33-1a2.61,2.61,0,0,1,2.47-1.78h86.17A2.61,2.61,0,0,1,326,105.52Z"/><path d="M361.18,168c-12.92,0-26.84,26.36-34.36,54a2.63,2.63,0,0,0,3.15,3.25c29.6-7.33,39-27.65,39.52-40.89C370,173,367.27,168,361.18,168m8-5.54c14.11,0,25.75,7.2,25.75,20.22,0,26.17-31.13,43.22-68.56,49a2.6,2.6,0,0,0-2.16,2c-2,9.68-3.5,19.51-3.5,27.87,0,16.06,3.87,24.37,16.34,24.37,20,0,34.13-15.45,45-34.92a2.6,2.6,0,0,1,3.44-1.07l.35.17a2.63,2.63,0,0,1,1.13,3.58c-16.59,30.32-35.49,41.38-54.11,41.38-22.44,0-45.42-11.08-45.42-44.31,0-31.57,30.18-88.35,81.7-88.35"/><path d="M500,194.68a2.68,2.68,0,0,0,.09-1.32c-3.08-16.43-8.87-24-18.16-24-22.15,0-46.25,57.6-46.25,95.27,0,16.89,5.54,19.93,11.08,19.93,11.3,0,22.88-10.42,32.55-27.45a3.16,3.16,0,0,0,.22-.5Zm44.26,57a2.63,2.63,0,0,1,1.67,3.5c-9.62,23.21-19.57,39.15-38.52,39.15-16.89,0-28.53-7.2-28.53-26.31l-1.1-.28c-10.52,16.62-24.37,27.42-38.78,27.42-16.89,0-35.72-10.53-35.72-43.76,0-36,35.17-88.9,77.83-88.9,10.52,0,19.93,8.59,21.87,21h.83l5.78-17.59a2.61,2.61,0,0,1,2.48-1.8h26a2.61,2.61,0,0,1,2.46,3.46l-30.38,88.21c-3.87,11.36-6.09,20.22-6.09,23.82,0,6.37,2.77,7.76,7.2,7.76,11.8,0,20.47-12.2,29.3-34.32a2.62,2.62,0,0,1,3.18-1.55Z"/><path d="M674.16,182.13c0,10.24-5.54,20.76-16.89,20.76-11.63,0-16.06-6.36-16.06-13.84,0-7,6.56-11.4,7.93-14.94a2.59,2.59,0,0,0,.15-.61c.25-1.74.38-2.74-1.71-3-10.19,0-23.4,20-31.44,34.65a2.41,2.41,0,0,0-.21.5L590.26,289.4a2.6,2.6,0,0,1-2.49,1.84H561.68a2.6,2.6,0,0,1-2.48-3.39l27.17-86.34c2.78-8.86,6.93-21,6.93-24.92,0-5.82-1.94-7.48-6.09-7.48-12,0-20.45,13.68-29,35a2.62,2.62,0,0,1-3.29,1.51l-.57-.2a2.6,2.6,0,0,1-1.55-3.46c9.61-23,19.32-39.55,38.82-39.55,11.92,0,26.31,7.76,26.31,28l1.11.28c9.42-14.68,19.11-28.25,34.9-28.25,12.74,0,20.21,9.42,20.21,19.67"/><path d="M938.51,105.52l-.25.75A2.59,2.59,0,0,1,936,108a135.83,135.83,0,0,0-18.81,3.2c-7.48,2.21-10.25,7.75-11.91,13.84L865.15,268.26a34.17,34.17,0,0,0-1.1,5.81c0,3.88,2.21,5.26,5.81,7.48,2.29,1.37,10.27,3.13,15.79,3.85a2.61,2.61,0,0,1,2.14,3.33l-.2.65a2.6,2.6,0,0,1-2.5,1.86h-86.5a2.6,2.6,0,0,1-2.5-3.35l.14-.45a2.59,2.59,0,0,1,2.31-1.85c5.71-.4,16.06-1.42,19.54-2.65,7.19-2.5,10.24-7.48,11.9-13.58l19.56-69a2.61,2.61,0,0,0-2.51-3.32H771.3a2.59,2.59,0,0,0-2.5,1.89l-19.68,69.29a15.42,15.42,0,0,0-.84,5.53c0,3.88,1.66,5.82,5.82,7.76,2.32,1.16,10.5,3.1,16.18,3.86a2.61,2.61,0,0,1,2.2,3.22l-.16.64a2.6,2.6,0,0,1-2.53,2H683.5A2.61,2.61,0,0,1,681,288l.11-.46a2.61,2.61,0,0,1,2.33-2c5.4-.4,15-1.41,18.62-2.63,7.21-2.5,10.25-7.76,11.92-13.58l39.87-142.9a33.75,33.75,0,0,0,1.11-6.37c0-3.6-1.66-5.54-5.54-7.48a92.29,92.29,0,0,0-15.55-4.34,2.59,2.59,0,0,1-2.06-3.17l.24-1a2.61,2.61,0,0,1,2.54-2H821a2.6,2.6,0,0,1,2.51,3.32l-.21.74A2.59,2.59,0,0,1,821,108a147.49,147.49,0,0,0-19.55,3.2c-7.2,2.21-10.52,8-12.18,13.84l-16.53,59.84a2.61,2.61,0,0,0,2.51,3.31h75.46a2.62,2.62,0,0,0,2.52-1.91l16.63-59.85a36,36,0,0,0,1.11-6.65c0-3.54-1.88-5.2-5.37-7.1a2.11,2.11,0,0,0-.34-.16,96.48,96.48,0,0,0-16.13-4.28,2.61,2.61,0,0,1-2.07-3.4l.33-1a2.61,2.61,0,0,1,2.47-1.78H936A2.61,2.61,0,0,1,938.51,105.52Z"/><path d="M998.11,110.12c0,12.19-7.47,23-20.77,23-10.8,0-16.34-8-16.34-18.28,0-12.19,8.31-22.71,22.16-22.71,9.13,0,15,8.86,15,18m-8.73,141.47a2.61,2.61,0,0,1,1.58,3.47c-9.66,23.25-20.12,39.23-38.81,39.23-13.85,0-31.3-5.82-31.3-22.71,0-6.65,1.38-12.18,5.26-21.88l19.11-48.19c4.43-11.35,7.2-21.32,7.2-24.92,0-5.82-2.22-7.48-6.65-7.48-11.76,0-20.17,12.92-29,35a2.63,2.63,0,0,1-3.33,1.5l-.33-.12a2.62,2.62,0,0,1-1.51-3.45C921.26,179,931,162.46,950.2,162.46c14.68,0,30.19,8.31,30.19,24.65,0,6.09-5,18.83-8,26.87L956,255.79c-4.71,12.19-7.75,20.22-7.75,24.37,0,6.37,3.6,7.21,8,7.21,11.78,0,21-12.17,29.84-34.26a2.61,2.61,0,0,1,3.25-1.52Z"/><path d="M1221.69,251.62a2.6,2.6,0,0,1,1.62,3.48c-9.64,23.23-19.85,39.19-39.08,39.19-13.29,0-31.84-5.82-31.84-22.71,0-6.65,2.21-12.74,5.53-21.88l16.34-43.2c3.88-10.25,6.93-17.45,6.93-23.27,0-8.3-5.26-10.8-11.36-10.8-11,0-22.29,12.31-32.21,27.68a3.93,3.93,0,0,0-.3.62l-28.94,88.71a2.61,2.61,0,0,1-2.48,1.8h-26.61a2.61,2.61,0,0,1-2.48-3.43l28.77-86.3c1.94-5.54,4.71-13,4.71-18.28,0-7.47-5-10.8-11.35-10.8-13,0-27.29,17.55-35.88,33a4,4,0,0,0-.21.47l-27.3,83.53a2.6,2.6,0,0,1-2.48,1.8h-26.59a2.6,2.6,0,0,1-2.47-3.45l29.29-86.28c2.21-6.64,6.92-21.87,6.92-25.2,0-5.54-1.66-7.2-6.09-7.2-12,0-20.2,13.18-29,35.06a2.63,2.63,0,0,1-3.29,1.5l-.58-.2a2.61,2.61,0,0,1-1.54-3.46c9.61-23,19.33-39.55,39.1-39.55,11.9,0,27.69,5,27.69,25.76l1.11.28c10.24-14.13,22.71-26,38.5-26,19.94,0,31.29,13.85,31.84,26h1.11c9.42-12.47,21.88-26,38.77-26,16.34,0,31.58,13.57,31.58,30.74,0,4.71-3,14.13-5.54,20.78l-16.06,41.81c-3.61,9.42-7.2,19.67-7.2,23.82,0,6.65,2.76,7.76,8,7.76,11.8,0,20.73-12.19,29.58-34.29a2.62,2.62,0,0,1,3.21-1.54Z"/><path d="M191.64,461.34a9.05,9.05,0,0,0-.27,2.44,2.18,2.18,0,0,0,2.3,2.45c4.08,0,9.51-5.84,12.77-14.67a1.21,1.21,0,0,1,1.09-.68c.81,0,2.44.68,2.44,2.17-3,9.37-10.86,20.1-21.32,20.1-4.89,0-6.25-3.53-6.25-9.23a36.9,36.9,0,0,1,.41-5.44c-3.94,8.43-13.31,15.08-20.92,15.08-10.59,0-16.43-6.65-16.43-17.11,0-23.36,21.46-50,40.75-50,5.7,0,8.42,2.3,10.18,5.84l1.36-4.21c.41-1.23,2-1.63,3.94-1.63,3,0,6.52,1.35,6.52,3.93C201.28,429,194.63,450.74,191.64,461.34Zm-5.57-49.44c-12.09,0-28.93,27.84-28.93,47.54,0,4.61,1.63,8.28,6.66,8.28,8.82,0,15.89-9.24,21.59-22.82,1.9-4.48,7.33-17.93,7.33-25.8C192.72,414.75,191.64,411.9,186.07,411.9Z"/><path d="M255.06,420.59c-6.52,0-2.85-8.56-9.91-8.56-4.62,0-7.2,3.13-7.2,7.88,0,5.16,3.53,11.82,5.84,16.57,3.39,7.2,6,11.82,6,18.88,0,9.64-7.33,18.2-20.1,18.2-8.83,0-16.7-4.07-16.7-11.27,0-3.4,1.9-5.71,5.29-5.71s4.35,2,4.35,4.35c0,5.43,3.67,7.06,7.74,7.06,4.89,0,9-2.44,9-9,0-5.16-2.72-10.32-5.57-15.89-3.53-7.07-5.44-12.23-5.44-18.07,0-10.18,7.2-18.6,18.75-18.6,8.28,0,13.17,3.39,13.17,8.69C260.22,418.69,258.05,420.59,255.06,420.59Z"/><path d="M298.79,427.52a1.21,1.21,0,0,1-1.09.68c-.95,0-2.71-.82-2.44-2.18,1.49-9.5,6.38-19.55,16.84-19.55,9.78,0,13.31,20,13.31,40.33a129.8,129.8,0,0,1-1,17.39c9.78-14.94,18.74-28.52,18.74-41.29,0-5.7-4.21-6-4.21-11.41,0-3.67,2.45-5,4.62-5,4.89,0,7.61,3.53,7.61,10.86,0,15.08-12,33.82-23.37,50.8-14.8,22-35.58,41.83-47.12,41.83a5.64,5.64,0,0,1-5.84-5.84c0-4.35,3.12-6,7.47-6,4.89,0,9.77-.95,13.17-3.12a68.28,68.28,0,0,0,18.61-17.66,171.92,171.92,0,0,0,1.08-19.69c0-13.45-1.76-29.61-4.89-39.8-.67-2.3-1.9-3.93-3.8-3.93C303.41,413.94,300.69,418.69,298.79,427.52Z"/><path d="M373.9,473.56c-7.2,0-19.15-2.72-19.15-20.78,0-19.15,16.57-46.31,37.48-46.31,9.24,0,19,5.29,19,21.73C411.25,445.45,396.44,473.56,373.9,473.56Zm18.47-62.07c-13.72,0-27,28.66-27,47.27,0,7.47,2.44,10.05,8,10.05,13.45,0,26.89-27.57,26.89-45.77C400.24,414.21,397.94,411.49,392.37,411.49Z"/><path d="M436.91,473.15c-7.6,0-12.08-4.21-12.08-11.41,0-6,1.08-11.4,6.24-24.31,4.62-11.54,6.79-17.38,6.79-21.59a2.18,2.18,0,0,0-2.31-2.45c-4.07,0-9.5,5.84-12.76,14.67a1.21,1.21,0,0,1-1.09.68c-.95,0-2.85-.81-2.44-2.17,2.71-9.51,11.54-20.1,21.18-20.1,5.44,0,8,2.17,8,8.15,0,5.56-2.45,13.58-7.07,25.39-4.61,12-6,17.25-6,22.14,0,3.53,1.49,5,4.89,5,7.2,0,18.88-11.41,23.63-23.64,2.58-6.65,10.46-30.83,11.27-35.44.14-.82,1.63-1.63,3.81-1.63s6.52.95,6.52,2.3a22.71,22.71,0,0,1-1.23,6l-7.19,23.36c-2.86,9.24-6.8,21.33-6.8,25,0,2.85.95,3.67,2.31,3.67,4.08,0,9.51-5.84,12.77-14.67a1.21,1.21,0,0,1,1.09-.68c.95,0,2.85.82,2.44,2.18-2.72,9.5-10.86,19.55-21.32,19.55-4.89,0-6.66-3.8-6.66-8.69a43.07,43.07,0,0,1,1.77-10.19C456.88,465,446.56,473.15,436.91,473.15Z"/><path d="M585.49,473c-7.2,0-12.22-3.13-15.07-7.74-5.84,4.61-12.36,7.74-19,7.74-11.68,0-15.89-6.52-15.89-15.89,0-10.46,7.47-25.13,22.41-37.49a16.47,16.47,0,0,1-3.39.41c-6.12,0-10.19-2.45-13.72-2.45-1.77,0-3.13,1.36-3.13,3.94,0,1.09-.27,1.36-1.35,1.36s-1.77-.27-2-1.09a19.12,19.12,0,0,1-.68-4.89c0-5.56,3.53-9.1,8.42-9.1,6.79,0,9.37,6.12,15.62,6.12a4.62,4.62,0,0,0,4.89-3.54c.41-1.9,1-3.93,3.53-3.93a2.74,2.74,0,0,1,3,2.85,5.07,5.07,0,0,1-1.36,3.53c-11.14,13.17-20.51,29.47-20.51,42.78,0,7.74,3.67,11,8.29,11,3.53,0,8-1.22,12.76-5.57a37.38,37.38,0,0,1-1.49-10.45c0-17.52,8.83-35.45,21.19-35.45,4.75,0,7.33,3.39,7.33,9.51,0,10.32-7.6,22.41-17.65,33.68,2,5.16,5.43,8.28,10.72,8.28,11.55,0,20.38-13.71,20.38-31.1,0-15.62-6.52-17.66-6.52-23.63,0-3.4,1.63-5.43,5.16-5.43,4.07,0,9.91,4.07,9.91,19.69C617.27,451.83,605.05,473,585.49,473Zm-.27-51.34c-5.84,0-9.91,11-9.91,22.68,0,2.85.27,5.84.54,8.56,7.33-8.7,12.49-17.8,12.49-26.76C588.34,423.31,587.8,421.68,585.22,421.68Z"/><path d="M670.65,461.34a9,9,0,0,0-.28,2.44,2.18,2.18,0,0,0,2.31,2.45c4.08,0,9.51-5.84,12.77-14.67a1.21,1.21,0,0,1,1.09-.68c.81,0,2.44.68,2.44,2.17-3,9.37-10.86,20.1-21.32,20.1-4.89,0-6.25-3.53-6.25-9.23a36.9,36.9,0,0,1,.41-5.44c-3.94,8.43-13.31,15.08-20.92,15.08-10.59,0-16.43-6.65-16.43-17.11,0-23.36,21.46-50,40.74-50,5.71,0,8.42,2.3,10.19,5.84l1.36-4.21c.41-1.23,2-1.63,3.94-1.63,3,0,6.51,1.35,6.51,3.93C680.29,429,673.63,450.74,670.65,461.34Zm-5.57-49.44c-12.09,0-28.93,27.84-28.93,47.54,0,4.61,1.63,8.28,6.65,8.28,8.83,0,15.89-9.24,21.6-22.82,1.9-4.48,7.33-17.93,7.33-25.8C671.73,414.75,670.65,411.9,665.08,411.9Z"/><path d="M736.92,374.14c-7.47,20.24-23.09,67.5-28.39,85.84a9.49,9.49,0,0,0-.27,2.44,2.18,2.18,0,0,0,2.31,2.45c4.08,0,9.51-5.84,12.77-14.67a1.2,1.2,0,0,1,1.08-.68c1,0,2.86.82,2.45,2.17-2.72,9.51-10.87,21.46-21.32,21.46-4.89,0-7.75-3.12-7.75-8.83a33.5,33.5,0,0,1,1.63-9.77l23.91-76.33c-2.17-.82-5.57-1-8.15-1-.68,0-1-.81-1-2.58,0-1.49.13-2.44,1.09-2.44a94.93,94.93,0,0,0,19.15-2.17c1.76,0,2.85.4,2.85,2A6.72,6.72,0,0,1,736.92,374.14Z"/><path d="M783.78,406.47c5.7,0,8,3.12,8,8.15,0,4.61-2.72,7.74-6.79,7.74a4.36,4.36,0,0,1-4.35-4.62c0-1.77-.81-2.58-2.71-2.58-3,0-13.59,8.69-22.41,19.69,11.13.55,14.53,9.51,15.89,25.81.4,4.21.81,5.7,2.71,5.7,2.85,0,7.88-4.62,10.87-14.8.13-.41.27-.68,1-.68,1.09,0,2.85.95,2.44,2.44-3.94,14.54-12.76,20.24-19.15,20.24s-8.82-4.07-8.82-15.08c0-15.48-1.63-19.82-5.44-19.82-1.76,0-3.39.67-4.75,4.21-2.31,6.24-7.34,23.9-8,27.57-.13.81-1.62,1.63-3.8,1.63s-6.52-.95-6.52-2.31a18.08,18.08,0,0,1,1.23-6l26.62-85.56c-2.18-.82-5.57-1-8.15-1-.68,0-1-.81-1-2.58,0-1.49.13-2.44,1.08-2.44a94.76,94.76,0,0,0,19.15-2.17c1.77,0,2.85.4,2.85,2a6.66,6.66,0,0,1-.4,2c-4.76,12.9-14.26,38.3-20.78,58.54C762.86,418.55,776.31,406.47,783.78,406.47Z"/><path d="M852.22,442.19c-4.61,11.54-7.33,17.38-7.33,21.59a2.18,2.18,0,0,0,2.31,2.45c4.07,0,9.51-5.84,12.76-14.67a1.21,1.21,0,0,1,1.09-.68c1,0,2.85.81,2.45,2.17-2.72,9.51-11.55,20.1-21.19,20.1-5.43,0-8-2.17-8-8.15,0-5.56,3-13.58,7.6-25.39,4.62-12,7.47-18.34,7.47-23.09,0-2.86-1-3.67-2.31-3.67-4.07,0-9.51,5.84-12.76,14.67a1.21,1.21,0,0,1-1.09.68c-1,0-2.85-.82-2.45-2.18,2.72-9.5,10.87-19.55,21.33-19.55,5.7,0,7.87,3.39,7.87,8.69C860,421.68,858.06,427.52,852.22,442.19Zm-1.63-62.07a7.54,7.54,0,1,1,7.61,7.6A7.6,7.6,0,0,1,850.59,380.12Z"/><path d="M923.52,406.47c7.61,0,12.09,4.21,12.09,11.4,0,6-1.08,11.41-6.24,24.32-4.62,11.54-6.8,17.38-6.8,21.59a2.18,2.18,0,0,0,2.31,2.45c4.08,0,9.51-5.84,12.77-14.67a1.21,1.21,0,0,1,1.09-.68c1,0,2.85.81,2.44,2.17-2.72,9.51-11.54,20.1-21.19,20.1-5.43,0-8-2.17-8-8.15,0-5.56,2.44-13.58,7.06-25.39,4.62-12,6-17.25,6-22.14,0-3.53-1.5-5-4.89-5-7.2,0-18.88,11.41-23.63,23.63-2.58,6.66-10,29.75-10.87,34.37-.13.81-1.63,1.63-3.8,1.63s-6.52-.95-6.52-2.31a23,23,0,0,1,1.22-6l6.79-22.27c2.85-9.24,6.79-21.33,6.79-25,0-2.86-1-3.67-2.31-3.67-4.07,0-9.5,5.84-12.76,14.67a1.21,1.21,0,0,1-1.09.68c-1,0-2.85-.82-2.44-2.18,2.71-9.5,10.86-19.55,21.32-19.55,4.89,0,6.65,3.8,6.65,8.69a43.46,43.46,0,0,1-1.76,10.18C903.56,414.62,913.88,406.47,923.52,406.47Z"/><path d="M995,460a9.05,9.05,0,0,0-.27,2.44,2.18,2.18,0,0,0,2.31,2.45c4.07,0,9.5-5.84,12.76-14.67a1.21,1.21,0,0,1,1.09-.68c.82,0,2.45.68,2.45,2.17-2.72,9.51-10.87,21.46-21.33,21.46-4.89,0-7.74-3.12-7.74-8.83a33.5,33.5,0,0,1,1.63-9.77l12.36-39.8c-2.45.27-6.25.27-7.33.27-.82,0-1-.4-1-1.49,0-2.72.41-3.53,1.36-3.53l8.29.4,5.57-17.65c.4-1.36,4.07-2.17,7.19-2.17,2.31,0,4.49.54,4.49,1.9-2,5.57-4.08,11.68-6.12,17.92,3.94-.13,9.24-.4,11.69-.4,1.35,0,1.49.4,1.49,2,0,2.31-.68,3-1.49,3-3.26,0-9,0-13.18-.27C1003.38,432.41,997.81,450.2,995,460Z"/><path d="M1070.88,406.47c7.6,0,12.09,4.21,12.09,11.4,0,6-1.09,11.41-6.25,24.32-4.62,11.54-6.79,17.38-6.79,21.59a2.18,2.18,0,0,0,2.31,2.45c4.07,0,9.5-5.84,12.76-14.67a1.21,1.21,0,0,1,1.09-.68c1,0,2.85.81,2.45,2.17-2.72,9.51-11.55,20.1-21.19,20.1-5.43,0-8-2.17-8-8.15,0-5.56,2.45-13.58,7.07-25.39,4.61-12,6-17.25,6-22.14,0-3.53-1.49-5-4.89-5-7.19,0-19,11.41-23.77,23.63-2.58,6.66-10,29.75-10.86,34.37-.14.81-1.63,1.63-3.8,1.63s-6.52-.95-6.52-2.31a22.6,22.6,0,0,1,1.22-6l26.76-85.56c-2.18-.82-5.57-1-8.15-1-.68,0-.95-.81-.95-2.58,0-1.49.13-2.44,1.08-2.44a94.76,94.76,0,0,0,19.15-2.17c1.77,0,2.86.4,2.86,2a6.72,6.72,0,0,1-.41,2c-3.94,10.6-11.14,30.56-17.12,47.95C1053.09,413,1062.19,406.47,1070.88,406.47Z"/><path d="M1110.4,443.41a54.9,54.9,0,0,0-2.31,13.85c0,7.06,3,10.19,8.69,10.19,7.34,0,15.89-7.06,19.29-15.35.4-1.09.54-1.36,1.49-1.36s3,.82,2.58,2.18c-3.12,9.64-12,20.64-27.16,20.64-8.15,0-16.44-6.11-16.44-17.25,0-25,21.46-49.84,42-49.84,8.42,0,11.68,4.48,11.68,10.59C1150.19,427,1136.75,436.89,1110.4,443.41Zm26.35-31.24c-7.61,0-18.61,9.51-24.72,26.35,17.79-5,28.93-13.31,28.93-22.14C1141,414.48,1140.14,412.17,1136.75,412.17Z"/><path d="M275.84,621.29c18.75,0,28.8-5.29,33.69-18.33.54-1.36,1.08-1.5,2.44-1.5,1.9,0,3.4.95,3.4,2.45a163.68,163.68,0,0,0-6.25,20.78c-.54,2.44-1.22,2.58-2.85,2.58-8.56,0-28.12-.95-49.58-.95-10.59,0-16.7.41-20,.41-.82,0-.95-.82-.95-2.45s.27-2.58.95-2.58c9.64,0,12.49-3.12,14.8-10.73l19.56-65.46c2-6.79.27-10.6-11.68-10.6-.68,0-1-.81-1-2.31,0-2,.41-2.71,1.22-2.71,3.4,0,9.91.68,20.78.68,10.19,0,16.3-.68,19.83-.68.95,0,1.09,1.08,1.09,2.58,0,1.9-.41,2.44-1.09,2.44-10.46,0-13.72,5.16-15.48,11.14l-18.88,62.61C263.62,616.13,264.16,621.29,275.84,621.29Z"/><path d="M344.43,597.66c-4.62,11.54-7.34,17.39-7.34,21.6a2.18,2.18,0,0,0,2.31,2.44c4.08,0,9.51-5.84,12.77-14.67a1.2,1.2,0,0,1,1.08-.68c1,0,2.86.82,2.45,2.18-2.72,9.5-11.54,20.1-21.19,20.1-5.43,0-8-2.18-8-8.15,0-5.57,3-13.58,7.6-25.4s7.47-18.34,7.47-23.09c0-2.85-.95-3.67-2.3-3.67-4.08,0-9.51,5.84-12.77,14.67a1.21,1.21,0,0,1-1.09.68c-1,0-2.85-.81-2.44-2.17,2.71-9.51,10.86-19.56,21.32-19.56,5.71,0,7.88,3.4,7.88,8.69C352.17,577.15,350.27,583,344.43,597.66Zm-1.63-62.07a7.54,7.54,0,1,1,7.6,7.61A7.58,7.58,0,0,1,342.8,535.59Z"/><path d="M369.69,593.18c0-14.67,11.27-31.24,27.43-31.24,6,0,9.92,2.58,12.22,6.38,3.13-3.8,7.2-6.24,12.36-6.24,4.08,0,7.47,2.44,7.47,6.92,0,3.4-1.63,5.71-4.89,5.71-4.89,0-3.26-5.57-8.14-5.57a6.57,6.57,0,0,0-5.3,3,21.2,21.2,0,0,1,.81,6.65c0,16.16-10.86,31.51-27.7,31.51-7.34,0-10.87,3-10.87,7.47,0,5.16,5.3,5.71,16.84,8.15,14.4,3,22,7.33,22,18.47C411.92,657.83,399.7,665,385,665c-20.1,0-31.51-8.42-31.51-19,0-7.2,4.21-10.18,8.42-10.18a5.75,5.75,0,0,1,4.89,2.44,10.43,10.43,0,0,0-3.39,7.88c0,6.92,7.6,13.44,21.46,13.44,11.54,0,17-5.29,17-12.22,0-5.16-2-7.74-15.34-11.14-18.07-4.48-23.09-7.06-23.09-15.07,0-5.71,5.57-12.09,14.94-13.45C372.54,605.4,369.69,600.92,369.69,593.18Zm27.16-26.76c-8.15,0-17.11,16.84-17.11,31.65,0,6.11,2,7.6,5.16,7.6,8.83,0,17.25-17.92,17.25-32.46C402.15,568.87,400.79,566.42,396.85,566.42Z"/><path d="M471.68,561.94c7.61,0,12.09,4.21,12.09,11.41,0,6-1.09,11.41-6.25,24.31-4.62,11.54-6.79,17.39-6.79,21.6A2.18,2.18,0,0,0,473,621.7c4.07,0,9.51-5.84,12.77-14.67a1.2,1.2,0,0,1,1.08-.68c.95,0,2.86.82,2.45,2.18-2.72,9.5-11.55,20.1-21.19,20.1-5.43,0-8-2.18-8-8.15,0-5.57,2.44-13.58,7.06-25.4s6-17.25,6-22.14c0-3.53-1.5-5-4.89-5-7.2,0-19,11.41-23.77,23.63-2.58,6.65-10,29.74-10.87,34.36-.13.82-1.63,1.63-3.8,1.63s-6.52-.95-6.52-2.31a23,23,0,0,1,1.22-6l26.76-85.57c-2.17-.82-5.57-1-8.15-1-.68,0-1-.82-1-2.58,0-1.5.13-2.45,1.09-2.45a94.13,94.13,0,0,0,19.15-2.17c1.76,0,2.85.41,2.85,2a6.83,6.83,0,0,1-.41,2c-3.94,10.59-11.14,30.55-17.11,47.94C453.89,568.46,463,561.94,471.68,561.94Z"/><path d="M508.89,615.45a9.58,9.58,0,0,0-.27,2.45,2.18,2.18,0,0,0,2.31,2.44c4.07,0,9.51-5.84,12.77-14.67a1.22,1.22,0,0,1,1.08-.68c.82,0,2.45.68,2.45,2.18-2.72,9.51-10.87,21.46-21.33,21.46-4.89,0-7.74-3.13-7.74-8.83a33.51,33.51,0,0,1,1.63-9.78l12.36-39.8c-2.44.28-6.25.28-7.33.28-.82,0-.95-.41-.95-1.5,0-2.71.4-3.53,1.35-3.53l8.29.41,5.57-17.66c.41-1.36,4.07-2.17,7.2-2.17,2.31,0,4.48.54,4.48,1.9-2,5.57-4.08,11.68-6.11,17.93,3.94-.14,9.23-.41,11.68-.41,1.35,0,1.49.41,1.49,2,0,2.31-.68,3-1.49,3-3.26,0-9,0-13.18-.28C517.31,587.88,511.74,605.67,508.89,615.45Z"/><path d="M591.74,629c-7.2,0-19.15-2.71-19.15-20.78,0-19.15,16.57-46.31,37.48-46.31,9.24,0,19,5.3,19,21.73C629.09,600.92,614.28,629,591.74,629ZM610.21,567c-13.72,0-27,28.65-27,47.26,0,7.47,2.44,10,8,10,13.45,0,26.89-27.57,26.89-45.77C618.08,569.68,615.78,567,610.21,567Z"/><path d="M648.78,623.87c-9,30.56-18.2,39.93-34.64,39.93-11.95,0-16.43-5.16-16.43-11,0-4.34,3-6.52,6-6.52,2.59,0,5,1.77,5,5.44s2,6.24,6,6.24c6.92,0,15.61-5.16,23.22-32.59l15.35-55.15c-2.31.28-6.25.28-7.34.28-.81,0-.95-.41-.95-1.5,0-2.71.41-3.53,1.36-3.53,1.5,0,5.84.27,8.15.41l4.62-15.76c5.57-18.88,16.43-22.81,25.67-22.81,11.41,0,15.89,4.75,15.89,10.73a5.72,5.72,0,0,1-5.3,5.84c-2.17,0-4.89-1.5-4.89-5.3,0-3.4-1.49-5.3-6.38-5.3-5.84,0-10.87,7.07-18.2,32.6,3.94-.14,9.24-.41,11.82-.41,1.35,0,1.49.41,1.49,2,0,2.31-.68,3-1.49,3-3.26,0-9,0-13.18-.28Z"/><path d="M794.51,560.17c-.14,1-1,1.36-2,1.36-1.36,0-3.13-.54-3.13-1.49.14-2,.28-4.21.28-6,0-14.26-6.39-20.37-17.66-20.37-23.09,0-42,35.86-42,63.56,0,14.13,4.76,25.26,19.15,25.26,16.57,0,26.89-11.4,32.33-26.75.4-1.09,1.22-1.22,2.17-1.22,1.22,0,3.4.68,2.85,2.17a157.89,157.89,0,0,0-6.38,27.84c-.14.82-1,1.36-2.72,1.36s-2.31-.14-2.31-1.22c0-2.18-.81-3.94-2.31-3.94a5.68,5.68,0,0,0-3.39,1.22c-5,3.4-13,6.79-20.78,6.79-23.09,0-33.55-16.3-33.55-35.72,0-29.2,23.91-65.73,57.45-65.73,8.56,0,13.31,3,17.52,7.33a4.16,4.16,0,0,0,2.31,1.36c1.22,0,2.58-1.22,3-3.26.14-1,1.09-1.09,2.17-1.09,1.5,0,2.86.68,2.86,1.9C797.63,543.47,795.46,550.4,794.51,560.17Z"/><path d="M844.48,561.94c7.61,0,12.09,4.21,12.09,11.41,0,6-1.09,11.41-6.25,24.31-4.61,11.54-6.79,17.39-6.79,21.6a2.18,2.18,0,0,0,2.31,2.44c4.08,0,9.51-5.84,12.77-14.67a1.2,1.2,0,0,1,1.08-.68c.95,0,2.86.82,2.45,2.18-2.72,9.5-11.55,20.1-21.19,20.1-5.43,0-8-2.18-8-8.15,0-5.57,2.44-13.58,7.06-25.4s6-17.25,6-22.14c0-3.53-1.5-5-4.89-5-7.2,0-19,11.41-23.77,23.63-2.58,6.65-10.05,29.74-10.87,34.36-.13.82-1.63,1.63-3.8,1.63s-6.52-.95-6.52-2.31a23,23,0,0,1,1.22-6l26.76-85.57c-2.17-.82-5.57-1-8.15-1-.68,0-1-.82-1-2.58,0-1.5.14-2.45,1.09-2.45a94,94,0,0,0,19.15-2.17c1.76,0,2.85.41,2.85,2a6.83,6.83,0,0,1-.41,2c-3.94,10.59-11.14,30.55-17.11,47.94C826.69,568.46,835.79,561.94,844.48,561.94Z"/><path d="M918.09,561.94c4.76,0,6.93,3.53,6.93,9,0,4.89-2.85,8-6.25,8-1.9,0-3.8-.95-3.8-3.67,0-2.31-1.09-3.94-2.72-3.94-3.26,0-10.59,4.89-18.88,25.4a242.89,242.89,0,0,0-9,29.2c-.14.82-1.63,1.63-3.8,1.63s-6.52-.95-6.52-2.31a22.62,22.62,0,0,1,1.22-6L882.1,597c2.85-9.23,6.79-21.32,6.79-25,0-2.85-.95-3.67-2.31-3.67-4.07,0-9.51,5.84-12.77,14.67a1.19,1.19,0,0,1-1.08.68c-1,0-2.85-.81-2.45-2.17,2.72-9.51,10.87-19.56,21.33-19.56,4.89,0,6.65,4.07,6.65,9,0,3.26-1.22,8-1.9,10.6C903,570,909.67,561.94,918.09,561.94Z"/><path d="M949.19,597.66c-4.62,11.54-7.33,17.39-7.33,21.6a2.18,2.18,0,0,0,2.31,2.44c4.07,0,9.5-5.84,12.76-14.67a1.21,1.21,0,0,1,1.09-.68c1,0,2.85.82,2.44,2.18-2.71,9.5-11.54,20.1-21.18,20.1-5.44,0-8-2.18-8-8.15,0-5.57,3-13.58,7.61-25.4s7.47-18.34,7.47-23.09c0-2.85-1-3.67-2.31-3.67-4.08,0-9.51,5.84-12.77,14.67a1.2,1.2,0,0,1-1.08.68c-1,0-2.86-.81-2.45-2.17,2.72-9.51,10.87-19.56,21.32-19.56,5.71,0,7.88,3.4,7.88,8.69C956.93,577.15,955,583,949.19,597.66Zm-1.63-62.07a7.54,7.54,0,1,1,7.61,7.61A7.59,7.59,0,0,1,947.56,535.59Z"/><path d="M1005.42,576.07c-6.52,0-2.86-8.56-9.92-8.56-4.62,0-7.2,3.12-7.2,7.88,0,5.16,3.53,11.81,5.84,16.57,3.4,7.19,6,11.81,6,18.87,0,9.65-7.34,18.2-20.1,18.2-8.83,0-16.71-4.07-16.71-11.27,0-3.39,1.9-5.7,5.3-5.7s4.35,2,4.35,4.34c0,5.44,3.66,7.07,7.74,7.07,4.89,0,9-2.45,9-9,0-5.16-2.72-10.32-5.57-15.89-3.53-7.06-5.43-12.22-5.43-18.06,0-10.19,7.2-18.61,18.74-18.61,8.29,0,13.18,3.4,13.18,8.69C1010.58,574.16,1008.4,576.07,1005.42,576.07Z"/><path d="M1026.6,615.45a9.14,9.14,0,0,0-.27,2.45,2.18,2.18,0,0,0,2.31,2.44c4.07,0,9.51-5.84,12.76-14.67a1.23,1.23,0,0,1,1.09-.68c.82,0,2.45.68,2.45,2.18-2.72,9.51-10.87,21.46-21.33,21.46-4.89,0-7.74-3.13-7.74-8.83a33.51,33.51,0,0,1,1.63-9.78l12.36-39.8c-2.44.28-6.25.28-7.33.28-.82,0-.95-.41-.95-1.5,0-2.71.4-3.53,1.35-3.53l8.29.41,5.57-17.66c.4-1.36,4.07-2.17,7.2-2.17,2.3,0,4.48.54,4.48,1.9-2,5.57-4.08,11.68-6.11,17.93,3.93-.14,9.23-.41,11.68-.41,1.35,0,1.49.41,1.49,2,0,2.31-.68,3-1.49,3-3.26,0-9,0-13.18-.28C1035,587.88,1029.45,605.67,1026.6,615.45Z"/><path d="M223.76,799.43H183.39v-6l16.17-16.26q3.7-3.78,6.14-6.43c1.62-1.76,2.82-3.18,3.61-4.24a27.37,27.37,0,0,0,3.53-6.22,17.88,17.88,0,0,0,1.17-6.51,12.15,12.15,0,0,0-.77-4.41A9.2,9.2,0,0,0,211,746a9.81,9.81,0,0,0-3.53-2.14,13.65,13.65,0,0,0-4.73-.76,21,21,0,0,0-7.26,1.26,29.09,29.09,0,0,0-7.61,4.58l-3.69-4.75q8.48-7.05,18.48-7.06,8.7,0,13.57,4.46t4.91,11.89A23,23,0,0,1,217.88,765q-3.24,5.67-12.27,14.45l-13.44,13.15V793h31.59Z"/><path d="M273.29,768.64q0,15.93-5,23.78t-15.36,7.85q-9.91,0-15.08-8t-5.16-23.59q0-16,5-23.82t15.25-7.77q10,0,15.19,8.11T273.29,768.64Zm-33.57,0q0,13.44,3.15,19.54a11.32,11.32,0,0,0,20.13-.09q3.15-6.21,3.15-19.45T263,749.27a11.33,11.33,0,0,0-20.13-.08Q239.72,755.24,239.72,768.64Z"/><path d="M322.14,799.43H281.77v-6L298,777.17q3.69-3.78,6.13-6.43a54.5,54.5,0,0,0,3.61-4.24,27,27,0,0,0,3.53-6.22,17.67,17.67,0,0,0,1.18-6.51,11.94,11.94,0,0,0-.78-4.41,9.2,9.2,0,0,0-2.23-3.36,9.76,9.76,0,0,0-3.52-2.14,13.69,13.69,0,0,0-4.73-.76,21,21,0,0,0-7.27,1.26,29.06,29.06,0,0,0-7.6,4.58l-3.7-4.75q8.49-7.05,18.49-7.06,8.69,0,13.56,4.46t4.92,11.89A23,23,0,0,1,316.26,765Q313,770.7,304,779.48l-13.45,13.15V793h31.59Z"/><path d="M356.8,799.43H350V755.66c0-1.85,0-3.63.08-5.33s.14-3.38.25-5c-.61.61-1.27,1.23-2,1.84-.37.31-1.38,1.15-3.05,2.5l-6.95,5.7-3.7-4.79L350.92,738h5.88Z"/><path d="M445.69,755.91a20.22,20.22,0,0,1-1.61,8.28,15.93,15.93,0,0,1-4.75,6.07,22,22,0,0,1-7.71,3.74,39.21,39.21,0,0,1-10.5,1.28h-7.23v24.15h-7.14V738h15.92Q445.69,738,445.69,755.91Zm-31.8,13.24h6.43c6.36,0,10.93-1,13.74-3.07s4.24-5.35,4.24-9.83q0-6.09-4-9.08t-12.44-3h-8Z"/><path d="M485.81,799.43l-1.39-6.55h-.33a19.41,19.41,0,0,1-6.89,5.88,21,21,0,0,1-8.53,1.51q-6.84,0-10.75-3.52c-2.58-2.36-3.87-5.7-3.87-10q0-13.89,22.31-14.61l7.81-.26V769q0-5.46-2.31-8c-1.54-1.7-4-2.56-7.48-2.56q-5.79,0-13,3.53l-2.14-5.34a31.07,31.07,0,0,1,7.46-2.92,33.15,33.15,0,0,1,8.12-1q8.24,0,12.21,3.65T491,768v31.42Zm-15.75-4.91q6.51,0,10.21-3.57T484,781v-4.16l-7,.29a41.31,41.31,0,0,0-7.12.76,15,15,0,0,0-4.87,1.83,7.39,7.39,0,0,0-2.8,3,9.31,9.31,0,0,0-.88,4.16,7.23,7.23,0,0,0,2.27,5.78A9.58,9.58,0,0,0,470.06,794.52Z"/><path d="M523.75,800.27q-10,0-15.51-6.13t-5.46-17.43q0-11.55,5.55-17.86t15.88-6.3a28.18,28.18,0,0,1,3.32.19c1.09.13,2.19.3,3.32.53a23.81,23.81,0,0,1,3,.77,22,22,0,0,1,2.24.91l-2.14,5.92a32.59,32.59,0,0,0-5-1.51,21.79,21.79,0,0,0-4.83-.63q-14,0-14,17.89,0,8.49,3.42,13t10.15,4.53a31.06,31.06,0,0,0,11.8-2.48v6.18A25.1,25.1,0,0,1,523.75,800.27Z"/><path d="M545.72,740.91a4.63,4.63,0,0,1,1.17-3.5,4.14,4.14,0,0,1,2.94-1.12,4.1,4.1,0,0,1,2.9,1.14,4.54,4.54,0,0,1,1.22,3.48,4.6,4.6,0,0,1-1.22,3.53,4.31,4.31,0,0,1-5.84,0A4.71,4.71,0,0,1,545.72,740.91Zm7.56,58.52h-7v-46h7Z"/><path d="M588.82,758.81H577.1v40.62h-7V758.81h-8.23v-3.15l8.23-2.52v-2.56q0-17,14.83-17a31.17,31.17,0,0,1,8.57,1.47l-1.8,5.58a22.75,22.75,0,0,0-6.89-1.3A6.71,6.71,0,0,0,579,742c-1.26,1.75-1.89,4.55-1.89,8.42v3h11.72Zm7.81-17.9a4.6,4.6,0,0,1,1.18-3.5,4.34,4.34,0,0,1,5.84,0,4.54,4.54,0,0,1,1.22,3.48,4.6,4.6,0,0,1-1.22,3.53,4.1,4.1,0,0,1-2.9,1.14,4,4,0,0,1-2.94-1.14A4.67,4.67,0,0,1,596.63,740.91Zm7.56,58.52h-7v-46h7Z"/><path d="M637.38,800.27q-10,0-15.5-6.13t-5.46-17.43q0-11.55,5.54-17.86t15.88-6.3a28.06,28.06,0,0,1,3.32.19c1.09.13,2.2.3,3.32.53a22.92,22.92,0,0,1,3,.77,21.33,21.33,0,0,1,2.25.91l-2.14,5.92a32.59,32.59,0,0,0-5-1.51,21.87,21.87,0,0,0-4.84-.63q-14,0-14,17.89,0,8.49,3.43,13t10.14,4.53A31.11,31.11,0,0,0,649,791.7v6.18A25.12,25.12,0,0,1,637.38,800.27Z"/><path d="M722,799.43,714.3,779.9H689.68l-7.56,19.53h-7.23l24.29-61.67h6l24.16,61.67Zm-9.88-26-7.14-19c-.95-2.46-1.9-5.42-2.86-8.86a84.84,84.84,0,0,1-2.64,8.86l-7.23,19Z"/><path d="M757.74,752.55a27.37,27.37,0,0,1,5.5.51l-1,6.47a23.13,23.13,0,0,0-5-.64,12.25,12.25,0,0,0-9.57,4.54,16.48,16.48,0,0,0-3.95,11.3v24.7h-7v-46h5.76l.8,8.53h.33A19.89,19.89,0,0,1,749.8,755,14,14,0,0,1,757.74,752.55Z"/><path d="M789.58,800.27q-10.22,0-16.13-6.21t-5.88-17.27q0-11.17,5.46-17.69t14.74-6.55q8.65,0,13.7,5.71t5,15v4.41H774.79q.21,8.16,4.08,12.33t11,4.18a37.21,37.21,0,0,0,14.71-3.11v6.22a36.92,36.92,0,0,1-7,2.27A38.4,38.4,0,0,1,789.58,800.27Zm-1.89-41.88a12.84,12.84,0,0,0-5,.93,10.66,10.66,0,0,0-3.84,2.68,13.69,13.69,0,0,0-2.61,4.29A20.92,20.92,0,0,0,775,772H799q0-6.63-2.92-10.12T787.69,758.39Z"/><path d="M846.71,799.43l-1.38-6.55H845a19.41,19.41,0,0,1-6.89,5.88,21,21,0,0,1-8.53,1.51q-6.84,0-10.75-3.52c-2.58-2.36-3.87-5.7-3.87-10q0-13.89,22.31-14.61l7.81-.26V769q0-5.46-2.31-8c-1.54-1.7-4-2.56-7.47-2.56q-5.81,0-13,3.53l-2.14-5.34a31.07,31.07,0,0,1,7.46-2.92,33.17,33.17,0,0,1,8.13-1q8.24,0,12.2,3.65t4,11.72v31.42ZM831,794.52q6.51,0,10.21-3.57t3.74-10v-4.16l-7,.29a41.31,41.31,0,0,0-7.12.76,15,15,0,0,0-4.87,1.83,7.3,7.3,0,0,0-2.79,3,9.18,9.18,0,0,0-.89,4.16,7.23,7.23,0,0,0,2.27,5.78A9.58,9.58,0,0,0,831,794.52Z"/><path d="M896.79,799.43h-7.14V738h34.23v6.34H896.79v22.47h25.46v6.35H896.79Z"/><path d="M972.74,776.37q0,11.26-5.67,17.6t-15.67,6.3a20.07,20.07,0,0,1-8.51-1.61,19.36,19.36,0,0,1-6.68-4.83,22,22,0,0,1-4.32-7.57,28.44,28.44,0,0,1-1.45-9.89q0-11.25,5.63-17.52t15.62-6.3q9.66,0,15.34,6.43T972.74,776.37Zm-35.08,0q0,8.86,3.51,13.46t10.4,4.6q6.88,0,10.42-4.57t3.52-13.49q0-8.86-3.52-13.38t-10.51-4.52q-6.88,0-10.35,4.46T937.66,776.37Z"/><path d="M1003.37,800.27q-10,0-15.51-6.13t-5.46-17.43q0-11.55,5.55-17.86t15.88-6.3a28.18,28.18,0,0,1,3.32.19c1.09.13,2.19.3,3.31.53a23.54,23.54,0,0,1,3,.77,22,22,0,0,1,2.24.91l-2.14,5.92a32.59,32.59,0,0,0-5-1.51,21.79,21.79,0,0,0-4.83-.63q-14,0-14,17.89,0,8.49,3.42,13t10.15,4.53a31.1,31.1,0,0,0,11.8-2.48v6.18A25.1,25.1,0,0,1,1003.37,800.27Z"/><path d="M1032.48,753.39v29.87c0,3.78.84,6.59,2.54,8.42s4.37,2.75,8,2.75q7.23,0,10.55-3.94t3.36-12.9v-24.2h7v46h-5.75l-1-6.17h-.38a14,14,0,0,1-5.92,5.21,20,20,0,0,1-8.7,1.8q-8.4,0-12.58-4t-4.18-12.77V753.39Z"/><path d="M1108.43,786.87a11.48,11.48,0,0,1-4.79,9.92q-4.83,3.48-13.44,3.48-9.21,0-14.28-2.89v-6.47a34.29,34.29,0,0,0,7.09,2.64,29.5,29.5,0,0,0,7.36,1c3.67,0,6.47-.58,8.42-1.74a5.79,5.79,0,0,0,2.92-5.32,5.72,5.72,0,0,0-2.35-4.58q-2.35-1.93-9.08-4.53a50.56,50.56,0,0,1-9.16-4.16,12.82,12.82,0,0,1-4-4.08,10.59,10.59,0,0,1-1.32-5.42,10.21,10.21,0,0,1,4.58-8.86q4.58-3.29,12.56-3.28a36.87,36.87,0,0,1,14.53,3l-2.47,5.67a33.52,33.52,0,0,0-12.57-2.86q-5,0-7.47,1.53a4.8,4.8,0,0,0-2.52,4.31,5.28,5.28,0,0,0,.92,3.15,5.73,5.73,0,0,0,1.24,1.28,13.82,13.82,0,0,0,1.83,1.2,56,56,0,0,0,8.06,3.4q8.19,3,11,6A10.56,10.56,0,0,1,1108.43,786.87Z"/></svg>
